<?xml version="1.0" encoding="UTF-8" standalone="no"?><svg xmlns="http://www.w3.org/2000/svg" xmlns:xlink="http://www.w3.org/1999/xlink" data-name="Layer 2" fill="#ffffff" height="53.1" preserveAspectRatio="xMidYMid meet" version="1" viewBox="3.0 5.4 58.0 53.1" width="58" zoomAndPan="magnify"><g id="change1_1"><path d="M60,5.43H4a1,1,0,0,0-1,1v4.34a1,1,0,0,0,1,1H5.41v32H4a1,1,0,0,0-1,1V49a1,1,0,0,0,1,1H31v4A2.39,2.39,0,1,0,33,54V50H60a1,1,0,0,0,1-1V44.69a1,1,0,0,0-1-1H58.59v-32H60a1,1,0,0,0,1-1V6.4A1,1,0,0,0,60,5.43ZM32,56.64a.47.47,0,0,1-.46-.46.46.46,0,0,1,.92,0A.47.47,0,0,1,32,56.64Zm27.07-11v2.41H4.93V45.65ZM7.34,43.72v-32H56.66v32ZM59.07,9.77H4.93V7.36H59.07Z"/></g><g id="change1_2"><path d="M25.65,29.7H19.56V23.61a1,1,0,0,0-1-1,8,8,0,1,0,8,8A1,1,0,0,0,25.65,29.7Zm-7.06,7.05a6.09,6.09,0,0,1-1-12.1v6a1,1,0,0,0,1,1h6A6.11,6.11,0,0,1,18.59,36.75Z"/></g><g id="change1_3"><path d="M21.74,19.56a1,1,0,0,0-1,1v7a1,1,0,0,0,1,1H28.8a1,1,0,0,0,1-1A8,8,0,0,0,21.74,19.56Zm1,7.06V21.57a6.1,6.1,0,0,1,5,5.05Z"/></g><g id="change1_4"><path d="M53.43,21.19H34.66a1,1,0,0,0,0,1.94H53.43a1,1,0,0,0,0-1.94Z"/></g><g id="change1_5"><path d="M53.43,28.42H34.66a1,1,0,0,0,0,1.94H53.43a1,1,0,0,0,0-1.94Z"/></g><g id="change1_6"><path d="M53.43,35.66H34.66a1,1,0,1,0,0,1.93H53.43a1,1,0,0,0,0-1.93Z"/></g></svg>